<?xml version="1.0" encoding="UTF-8" standalone="no"?>
<!DOCTYPE svg PUBLIC "-//W3C//DTD SVG 1.1//EN"
 "http://www.w3.org/Graphics/SVG/1.1/DTD/svg11.dtd">
<!-- Generated by graphviz version 2.30.1 (20130711.0846)
 -->
<!-- Title: controllers_diagram Pages: 1 -->
<svg width="935pt" height="861pt"
 viewBox="0.00 0.00 935.38 861.04" xmlns="http://www.w3.org/2000/svg" xmlns:xlink="http://www.w3.org/1999/xlink">
<g id="graph0" class="graph" transform="scale(1 1) rotate(0) translate(4 857.042)">
<title>controllers_diagram</title>
<polygon fill="white" stroke="white" points="-4,5 -4,-857.042 932.375,-857.042 932.375,5 -4,5"/>
<!-- _diagram_info -->
<g id="node1" class="node"><title>_diagram_info</title>
<text text-anchor="start" x="728" y="-129" font-family="Times,serif" font-size="13.00">Controllers diagram</text>
<text text-anchor="start" x="728" y="-113.4" font-family="Times,serif" font-size="13.00">Date: Jul 13 2013 &#45; 13:59</text>
<text text-anchor="start" x="728" y="-97.8" font-family="Times,serif" font-size="13.00">Migration version: 20130713123851</text>
<text text-anchor="start" x="728" y="-82.2" font-family="Times,serif" font-size="13.00">Generated by RailRoady 1.1.0</text>
<text text-anchor="start" x="728" y="-66.6" font-family="Times,serif" font-size="13.00">http://railroady.prestonlee.com</text>
</g>
<!-- AnnouncementsController -->
<g id="node2" class="node"><title>AnnouncementsController</title>
<path fill="none" stroke="black" d="M40.3613,-431.014C40.3613,-431.014 180.886,-431.014 180.886,-431.014 186.886,-431.014 192.886,-437.014 192.886,-443.014 192.886,-443.014 192.886,-618.214 192.886,-618.214 192.886,-624.214 186.886,-630.214 180.886,-630.214 180.886,-630.214 40.3613,-630.214 40.3613,-630.214 34.3613,-630.214 28.3613,-624.214 28.3613,-618.214 28.3613,-618.214 28.3613,-443.014 28.3613,-443.014 28.3613,-437.014 34.3613,-431.014 40.3613,-431.014"/>
<text text-anchor="middle" x="110.624" y="-612.214" font-family="Times,serif" font-size="14.00">AnnouncementsController</text>
<polyline fill="none" stroke="black" points="28.3613,-605.414 192.886,-605.414 "/>
<text text-anchor="start" x="36.3613" y="-587.414" font-family="Times,serif" font-size="14.00">create</text>
<text text-anchor="start" x="36.3613" y="-570.614" font-family="Times,serif" font-size="14.00">destroy</text>
<text text-anchor="start" x="36.3613" y="-553.814" font-family="Times,serif" font-size="14.00">edit</text>
<text text-anchor="start" x="36.3613" y="-537.014" font-family="Times,serif" font-size="14.00">index</text>
<text text-anchor="start" x="36.3613" y="-520.214" font-family="Times,serif" font-size="14.00">new</text>
<text text-anchor="start" x="36.3613" y="-503.414" font-family="Times,serif" font-size="14.00">show</text>
<text text-anchor="start" x="36.3613" y="-486.614" font-family="Times,serif" font-size="14.00">update</text>
<polyline fill="none" stroke="black" points="28.3613,-479.814 192.886,-479.814 "/>
<polyline fill="none" stroke="black" points="28.3613,-455.814 192.886,-455.814 "/>
<text text-anchor="start" x="36.3613" y="-437.814" font-family="Times,serif" font-size="14.00">_layout</text>
</g>
<!-- ApplicationController -->
<g id="node3" class="node"><title>ApplicationController</title>
<path fill="none" stroke="black" d="M269.335,-369.928C269.335,-369.928 447.97,-369.928 447.97,-369.928 453.97,-369.928 459.97,-375.928 459.97,-381.928 459.97,-381.928 459.97,-456.328 459.97,-456.328 459.97,-462.328 453.97,-468.328 447.97,-468.328 447.97,-468.328 269.335,-468.328 269.335,-468.328 263.335,-468.328 257.335,-462.328 257.335,-456.328 257.335,-456.328 257.335,-381.928 257.335,-381.928 257.335,-375.928 263.335,-369.928 269.335,-369.928"/>
<text text-anchor="middle" x="358.652" y="-450.328" font-family="Times,serif" font-size="14.00">ApplicationController</text>
<polyline fill="none" stroke="black" points="257.335,-443.528 459.97,-443.528 "/>
<text text-anchor="start" x="265.335" y="-425.528" font-family="Times,serif" font-size="14.00">_one_time_conditions_valid_12?</text>
<polyline fill="none" stroke="black" points="257.335,-418.728 459.97,-418.728 "/>
<polyline fill="none" stroke="black" points="257.335,-394.728 459.97,-394.728 "/>
<text text-anchor="start" x="265.335" y="-376.728" font-family="Times,serif" font-size="14.00">_layout</text>
</g>
<!-- ApplicationController&#45;&gt;AnnouncementsController -->
<g id="edge1" class="edge"><title>ApplicationController&#45;&gt;AnnouncementsController</title>
<path fill="none" stroke="black" d="M257.054,-464.795C235.783,-474.357 213.601,-484.327 193.126,-493.53"/>
</g>
<!-- ClassroomsController -->
<g id="node4" class="node"><title>ClassroomsController</title>
<path fill="none" stroke="black" d="M296.823,-33.3096C296.823,-33.3096 411.705,-33.3096 411.705,-33.3096 417.705,-33.3096 423.705,-39.3096 423.705,-45.3096 423.705,-45.3096 423.705,-220.51 423.705,-220.51 423.705,-226.51 417.705,-232.51 411.705,-232.51 411.705,-232.51 296.823,-232.51 296.823,-232.51 290.823,-232.51 284.823,-226.51 284.823,-220.51 284.823,-220.51 284.823,-45.3096 284.823,-45.3096 284.823,-39.3096 290.823,-33.3096 296.823,-33.3096"/>
<text text-anchor="middle" x="354.264" y="-214.51" font-family="Times,serif" font-size="14.00">ClassroomsController</text>
<polyline fill="none" stroke="black" points="284.823,-207.71 423.705,-207.71 "/>
<text text-anchor="start" x="292.823" y="-189.71" font-family="Times,serif" font-size="14.00">create</text>
<text text-anchor="start" x="292.823" y="-172.91" font-family="Times,serif" font-size="14.00">destroy</text>
<text text-anchor="start" x="292.823" y="-156.11" font-family="Times,serif" font-size="14.00">edit</text>
<text text-anchor="start" x="292.823" y="-139.31" font-family="Times,serif" font-size="14.00">index</text>
<text text-anchor="start" x="292.823" y="-122.51" font-family="Times,serif" font-size="14.00">new</text>
<text text-anchor="start" x="292.823" y="-105.71" font-family="Times,serif" font-size="14.00">show</text>
<text text-anchor="start" x="292.823" y="-88.9096" font-family="Times,serif" font-size="14.00">update</text>
<polyline fill="none" stroke="black" points="284.823,-82.1096 423.705,-82.1096 "/>
<polyline fill="none" stroke="black" points="284.823,-58.1096 423.705,-58.1096 "/>
<text text-anchor="start" x="292.823" y="-40.1096" font-family="Times,serif" font-size="14.00">_layout</text>
</g>
<!-- ApplicationController&#45;&gt;ClassroomsController -->
<g id="edge2" class="edge"><title>ApplicationController&#45;&gt;ClassroomsController</title>
<path fill="none" stroke="black" d="M357.898,-369.925C357.321,-332.285 356.506,-279.127 355.794,-232.689"/>
</g>
<!-- CourseCategoriesController -->
<g id="node5" class="node"><title>CourseCategoriesController</title>
<path fill="none" stroke="black" d="M279.588,-612.875C279.588,-612.875 428.664,-612.875 428.664,-612.875 434.664,-612.875 440.664,-618.875 440.664,-624.875 440.664,-624.875 440.664,-800.075 440.664,-800.075 440.664,-806.075 434.664,-812.075 428.664,-812.075 428.664,-812.075 279.588,-812.075 279.588,-812.075 273.588,-812.075 267.588,-806.075 267.588,-800.075 267.588,-800.075 267.588,-624.875 267.588,-624.875 267.588,-618.875 273.588,-612.875 279.588,-612.875"/>
<text text-anchor="middle" x="354.126" y="-794.075" font-family="Times,serif" font-size="14.00">CourseCategoriesController</text>
<polyline fill="none" stroke="black" points="267.588,-787.275 440.664,-787.275 "/>
<text text-anchor="start" x="275.588" y="-769.275" font-family="Times,serif" font-size="14.00">create</text>
<text text-anchor="start" x="275.588" y="-752.475" font-family="Times,serif" font-size="14.00">destroy</text>
<text text-anchor="start" x="275.588" y="-735.675" font-family="Times,serif" font-size="14.00">edit</text>
<text text-anchor="start" x="275.588" y="-718.875" font-family="Times,serif" font-size="14.00">index</text>
<text text-anchor="start" x="275.588" y="-702.075" font-family="Times,serif" font-size="14.00">new</text>
<text text-anchor="start" x="275.588" y="-685.275" font-family="Times,serif" font-size="14.00">show</text>
<text text-anchor="start" x="275.588" y="-668.475" font-family="Times,serif" font-size="14.00">update</text>
<polyline fill="none" stroke="black" points="267.588,-661.675 440.664,-661.675 "/>
<polyline fill="none" stroke="black" points="267.588,-637.675 440.664,-637.675 "/>
<text text-anchor="start" x="275.588" y="-619.675" font-family="Times,serif" font-size="14.00">_layout</text>
</g>
<!-- ApplicationController&#45;&gt;CourseCategoriesController -->
<g id="edge3" class="edge"><title>ApplicationController&#45;&gt;CourseCategoriesController</title>
<path fill="none" stroke="black" d="M357.89,-468.559C357.284,-507.829 356.417,-564.025 355.667,-612.581"/>
</g>
<!-- CoursesController -->
<g id="node6" class="node"><title>CoursesController</title>
<path fill="none" stroke="black" d="M545.663,-622.231C545.663,-622.231 640.318,-622.231 640.318,-622.231 646.318,-622.231 652.318,-628.231 652.318,-634.231 652.318,-634.231 652.318,-809.431 652.318,-809.431 652.318,-815.431 646.318,-821.431 640.318,-821.431 640.318,-821.431 545.663,-821.431 545.663,-821.431 539.663,-821.431 533.663,-815.431 533.663,-809.431 533.663,-809.431 533.663,-634.231 533.663,-634.231 533.663,-628.231 539.663,-622.231 545.663,-622.231"/>
<text text-anchor="middle" x="592.99" y="-803.431" font-family="Times,serif" font-size="14.00">CoursesController</text>
<polyline fill="none" stroke="black" points="533.663,-796.631 652.318,-796.631 "/>
<text text-anchor="start" x="541.663" y="-778.631" font-family="Times,serif" font-size="14.00">create</text>
<text text-anchor="start" x="541.663" y="-761.831" font-family="Times,serif" font-size="14.00">destroy</text>
<text text-anchor="start" x="541.663" y="-745.031" font-family="Times,serif" font-size="14.00">edit</text>
<text text-anchor="start" x="541.663" y="-728.231" font-family="Times,serif" font-size="14.00">index</text>
<text text-anchor="start" x="541.663" y="-711.431" font-family="Times,serif" font-size="14.00">new</text>
<text text-anchor="start" x="541.663" y="-694.631" font-family="Times,serif" font-size="14.00">show</text>
<text text-anchor="start" x="541.663" y="-677.831" font-family="Times,serif" font-size="14.00">update</text>
<polyline fill="none" stroke="black" points="533.663,-671.031 652.318,-671.031 "/>
<polyline fill="none" stroke="black" points="533.663,-647.031 652.318,-647.031 "/>
<text text-anchor="start" x="541.663" y="-629.031" font-family="Times,serif" font-size="14.00">_layout</text>
</g>
<!-- ApplicationController&#45;&gt;CoursesController -->
<g id="edge4" class="edge"><title>ApplicationController&#45;&gt;CoursesController</title>
<path fill="none" stroke="black" d="M396.824,-468.436C433.852,-516.266 490.58,-589.544 533.525,-645.017"/>
</g>
<!-- EnrolledUserCommentsController -->
<g id="node7" class="node"><title>EnrolledUserCommentsController</title>
<path fill="none" stroke="black" d="M12,-653.342C12,-653.342 196.855,-653.342 196.855,-653.342 202.855,-653.342 208.855,-659.342 208.855,-665.342 208.855,-665.342 208.855,-840.542 208.855,-840.542 208.855,-846.542 202.855,-852.542 196.855,-852.542 196.855,-852.542 12,-852.542 12,-852.542 6,-852.542 -5.68434e-14,-846.542 -5.68434e-14,-840.542 -5.68434e-14,-840.542 -5.68434e-14,-665.342 -5.68434e-14,-665.342 -5.68434e-14,-659.342 6,-653.342 12,-653.342"/>
<text text-anchor="middle" x="104.428" y="-834.542" font-family="Times,serif" font-size="14.00">EnrolledUserCommentsController</text>
<polyline fill="none" stroke="black" points="-5.68434e-14,-827.742 208.855,-827.742 "/>
<text text-anchor="start" x="8" y="-809.742" font-family="Times,serif" font-size="14.00">create</text>
<text text-anchor="start" x="8" y="-792.942" font-family="Times,serif" font-size="14.00">destroy</text>
<text text-anchor="start" x="8" y="-776.142" font-family="Times,serif" font-size="14.00">edit</text>
<text text-anchor="start" x="8" y="-759.342" font-family="Times,serif" font-size="14.00">index</text>
<text text-anchor="start" x="8" y="-742.542" font-family="Times,serif" font-size="14.00">new</text>
<text text-anchor="start" x="8" y="-725.742" font-family="Times,serif" font-size="14.00">show</text>
<text text-anchor="start" x="8" y="-708.942" font-family="Times,serif" font-size="14.00">update</text>
<polyline fill="none" stroke="black" points="-5.68434e-14,-702.142 208.855,-702.142 "/>
<polyline fill="none" stroke="black" points="-5.68434e-14,-678.142 208.855,-678.142 "/>
<text text-anchor="start" x="8" y="-660.142" font-family="Times,serif" font-size="14.00">_layout</text>
</g>
<!-- ApplicationController&#45;&gt;EnrolledUserCommentsController -->
<g id="edge5" class="edge"><title>ApplicationController&#45;&gt;EnrolledUserCommentsController</title>
<path fill="none" stroke="black" d="M321.275,-468.548C288.371,-512.015 239.131,-576.978 196.086,-633.414 191.169,-639.86 186.1,-646.497 180.986,-653.185"/>
</g>
<!-- EnrollmentsController -->
<g id="node8" class="node"><title>EnrollmentsController</title>
<path fill="none" stroke="black" d="M50.0342,-220.796C50.0342,-220.796 168.014,-220.796 168.014,-220.796 174.014,-220.796 180.014,-226.796 180.014,-232.796 180.014,-232.796 180.014,-407.996 180.014,-407.996 180.014,-413.996 174.014,-419.996 168.014,-419.996 168.014,-419.996 50.0342,-419.996 50.0342,-419.996 44.0342,-419.996 38.0342,-413.996 38.0342,-407.996 38.0342,-407.996 38.0342,-232.796 38.0342,-232.796 38.0342,-226.796 44.0342,-220.796 50.0342,-220.796"/>
<text text-anchor="middle" x="109.024" y="-401.996" font-family="Times,serif" font-size="14.00">EnrollmentsController</text>
<polyline fill="none" stroke="black" points="38.0342,-395.196 180.014,-395.196 "/>
<text text-anchor="start" x="46.0342" y="-377.196" font-family="Times,serif" font-size="14.00">create</text>
<text text-anchor="start" x="46.0342" y="-360.396" font-family="Times,serif" font-size="14.00">destroy</text>
<text text-anchor="start" x="46.0342" y="-343.596" font-family="Times,serif" font-size="14.00">edit</text>
<text text-anchor="start" x="46.0342" y="-326.796" font-family="Times,serif" font-size="14.00">index</text>
<text text-anchor="start" x="46.0342" y="-309.996" font-family="Times,serif" font-size="14.00">new</text>
<text text-anchor="start" x="46.0342" y="-293.196" font-family="Times,serif" font-size="14.00">show</text>
<text text-anchor="start" x="46.0342" y="-276.396" font-family="Times,serif" font-size="14.00">update</text>
<polyline fill="none" stroke="black" points="38.0342,-269.596 180.014,-269.596 "/>
<polyline fill="none" stroke="black" points="38.0342,-245.596 180.014,-245.596 "/>
<text text-anchor="start" x="46.0342" y="-227.596" font-family="Times,serif" font-size="14.00">_layout</text>
</g>
<!-- ApplicationController&#45;&gt;EnrollmentsController -->
<g id="edge6" class="edge"><title>ApplicationController&#45;&gt;EnrollmentsController</title>
<path fill="none" stroke="black" d="M257.119,-378.97C231.337,-368.773 204.182,-358.033 180.265,-348.573"/>
</g>
<!-- LessonsController -->
<g id="node9" class="node"><title>LessonsController</title>
<path fill="none" stroke="black" d="M547.328,-332.848C547.328,-332.848 641.983,-332.848 641.983,-332.848 647.983,-332.848 653.983,-338.848 653.983,-344.848 653.983,-344.848 653.983,-520.048 653.983,-520.048 653.983,-526.048 647.983,-532.048 641.983,-532.048 641.983,-532.048 547.328,-532.048 547.328,-532.048 541.328,-532.048 535.328,-526.048 535.328,-520.048 535.328,-520.048 535.328,-344.848 535.328,-344.848 535.328,-338.848 541.328,-332.848 547.328,-332.848"/>
<text text-anchor="middle" x="594.656" y="-514.048" font-family="Times,serif" font-size="14.00">LessonsController</text>
<polyline fill="none" stroke="black" points="535.328,-507.248 653.983,-507.248 "/>
<text text-anchor="start" x="543.328" y="-489.248" font-family="Times,serif" font-size="14.00">create</text>
<text text-anchor="start" x="543.328" y="-472.448" font-family="Times,serif" font-size="14.00">destroy</text>
<text text-anchor="start" x="543.328" y="-455.648" font-family="Times,serif" font-size="14.00">edit</text>
<text text-anchor="start" x="543.328" y="-438.848" font-family="Times,serif" font-size="14.00">index</text>
<text text-anchor="start" x="543.328" y="-422.048" font-family="Times,serif" font-size="14.00">new</text>
<text text-anchor="start" x="543.328" y="-405.248" font-family="Times,serif" font-size="14.00">show</text>
<text text-anchor="start" x="543.328" y="-388.448" font-family="Times,serif" font-size="14.00">update</text>
<polyline fill="none" stroke="black" points="535.328,-381.648 653.983,-381.648 "/>
<polyline fill="none" stroke="black" points="535.328,-357.648 653.983,-357.648 "/>
<text text-anchor="start" x="543.328" y="-339.648" font-family="Times,serif" font-size="14.00">_layout</text>
</g>
<!-- ApplicationController&#45;&gt;LessonsController -->
<g id="edge7" class="edge"><title>ApplicationController&#45;&gt;LessonsController</title>
<path fill="none" stroke="black" d="M460.109,-424.854C485.72,-426.299 512.392,-427.805 535.169,-429.09"/>
</g>
<!-- SitesController -->
<g id="node10" class="node"><title>SitesController</title>
<path fill="none" stroke="black" d="M65.3001,-0.5C65.3001,-0.5 142.073,-0.5 142.073,-0.5 148.073,-0.5 154.073,-6.5 154.073,-12.5 154.073,-12.5 154.073,-187.7 154.073,-187.7 154.073,-193.7 148.073,-199.7 142.073,-199.7 142.073,-199.7 65.3001,-199.7 65.3001,-199.7 59.3001,-199.7 53.3001,-193.7 53.3001,-187.7 53.3001,-187.7 53.3001,-12.5 53.3001,-12.5 53.3001,-6.5 59.3001,-0.5 65.3001,-0.5"/>
<text text-anchor="middle" x="103.686" y="-181.7" font-family="Times,serif" font-size="14.00">SitesController</text>
<polyline fill="none" stroke="black" points="53.3001,-174.9 154.073,-174.9 "/>
<text text-anchor="start" x="61.3001" y="-156.9" font-family="Times,serif" font-size="14.00">create</text>
<text text-anchor="start" x="61.3001" y="-140.1" font-family="Times,serif" font-size="14.00">destroy</text>
<text text-anchor="start" x="61.3001" y="-123.3" font-family="Times,serif" font-size="14.00">edit</text>
<text text-anchor="start" x="61.3001" y="-106.5" font-family="Times,serif" font-size="14.00">index</text>
<text text-anchor="start" x="61.3001" y="-89.7" font-family="Times,serif" font-size="14.00">new</text>
<text text-anchor="start" x="61.3001" y="-72.9" font-family="Times,serif" font-size="14.00">show</text>
<text text-anchor="start" x="61.3001" y="-56.1" font-family="Times,serif" font-size="14.00">update</text>
<polyline fill="none" stroke="black" points="53.3001,-49.3 154.073,-49.3 "/>
<polyline fill="none" stroke="black" points="53.3001,-25.3 154.073,-25.3 "/>
<text text-anchor="start" x="61.3001" y="-7.3" font-family="Times,serif" font-size="14.00">_layout</text>
</g>
<!-- ApplicationController&#45;&gt;SitesController -->
<g id="edge8" class="edge"><title>ApplicationController&#45;&gt;SitesController</title>
<path fill="none" stroke="black" d="M319.094,-369.63C274.684,-314.062 202.519,-223.765 154.099,-163.179"/>
</g>
<!-- UsersController -->
<g id="node11" class="node"><title>UsersController</title>
<path fill="none" stroke="black" d="M553.299,-37.9445C553.299,-37.9445 634.727,-37.9445 634.727,-37.9445 640.727,-37.9445 646.727,-43.9445 646.727,-49.9445 646.727,-49.9445 646.727,-225.145 646.727,-225.145 646.727,-231.145 640.727,-237.145 634.727,-237.145 634.727,-237.145 553.299,-237.145 553.299,-237.145 547.299,-237.145 541.299,-231.145 541.299,-225.145 541.299,-225.145 541.299,-49.9445 541.299,-49.9445 541.299,-43.9445 547.299,-37.9445 553.299,-37.9445"/>
<text text-anchor="middle" x="594.013" y="-219.145" font-family="Times,serif" font-size="14.00">UsersController</text>
<polyline fill="none" stroke="black" points="541.299,-212.345 646.727,-212.345 "/>
<text text-anchor="start" x="549.299" y="-194.345" font-family="Times,serif" font-size="14.00">create</text>
<text text-anchor="start" x="549.299" y="-177.545" font-family="Times,serif" font-size="14.00">destroy</text>
<text text-anchor="start" x="549.299" y="-160.745" font-family="Times,serif" font-size="14.00">edit</text>
<text text-anchor="start" x="549.299" y="-143.945" font-family="Times,serif" font-size="14.00">index</text>
<text text-anchor="start" x="549.299" y="-127.145" font-family="Times,serif" font-size="14.00">new</text>
<text text-anchor="start" x="549.299" y="-110.345" font-family="Times,serif" font-size="14.00">show</text>
<text text-anchor="start" x="549.299" y="-93.5445" font-family="Times,serif" font-size="14.00">update</text>
<polyline fill="none" stroke="black" points="541.299,-86.7445 646.727,-86.7445 "/>
<polyline fill="none" stroke="black" points="541.299,-62.7445 646.727,-62.7445 "/>
<text text-anchor="start" x="549.299" y="-44.7445" font-family="Times,serif" font-size="14.00">_layout</text>
</g>
<!-- ApplicationController&#45;&gt;UsersController -->
<g id="edge9" class="edge"><title>ApplicationController&#45;&gt;UsersController</title>
<path fill="none" stroke="black" d="M399.918,-369.758C439.206,-322.755 498.512,-251.801 541.224,-200.7"/>
</g>
</g>
</svg>
