<?xml version="1.0" encoding="UTF-8" standalone="no"?>
<!DOCTYPE svg PUBLIC "-//W3C//DTD SVG 1.1//EN"
 "http://www.w3.org/Graphics/SVG/1.1/DTD/svg11.dtd">
<!-- Generated by graphviz version 2.30.1 (20130711.0846)
 -->
<!-- Title: models_diagram Pages: 1 -->
<svg width="671pt" height="1200pt"
 viewBox="0.00 0.00 671.00 1200.00" xmlns="http://www.w3.org/2000/svg" xmlns:xlink="http://www.w3.org/1999/xlink">
<g id="graph0" class="graph" transform="scale(1 1) rotate(0) translate(4 1196)">
<title>models_diagram</title>
<polygon fill="white" stroke="white" points="-4,5 -4,-1196 668,-1196 668,5 -4,5"/>
<!-- _diagram_info -->
<g id="node1" class="node"><title>_diagram_info</title>
<text text-anchor="start" x="7.31226" y="-1134" font-family="Times,serif" font-size="13.00">Models diagram</text>
<text text-anchor="start" x="7.31226" y="-1118.4" font-family="Times,serif" font-size="13.00">Date: Jul 13 2013 &#45; 13:59</text>
<text text-anchor="start" x="7.31226" y="-1102.8" font-family="Times,serif" font-size="13.00">Migration version: 20130713123851</text>
<text text-anchor="start" x="7.31226" y="-1087.2" font-family="Times,serif" font-size="13.00">Generated by RailRoady 1.1.0</text>
<text text-anchor="start" x="7.31226" y="-1071.6" font-family="Times,serif" font-size="13.00">http://railroady.prestonlee.com</text>
</g>
<!-- Announcement -->
<g id="node2" class="node"><title>Announcement</title>
<path fill="none" stroke="black" d="M496.939,-189.2C496.939,-189.2 651.061,-189.2 651.061,-189.2 657.061,-189.2 663.061,-195.2 663.061,-201.2 663.061,-201.2 663.061,-310.8 663.061,-310.8 663.061,-316.8 657.061,-322.8 651.061,-322.8 651.061,-322.8 496.939,-322.8 496.939,-322.8 490.939,-322.8 484.939,-316.8 484.939,-310.8 484.939,-310.8 484.939,-201.2 484.939,-201.2 484.939,-195.2 490.939,-189.2 496.939,-189.2"/>
<text text-anchor="middle" x="574" y="-304.8" font-family="Times,serif" font-size="14.00">Announcement</text>
<polyline fill="none" stroke="black" points="484.939,-298 663.061,-298 "/>
<text text-anchor="start" x="492.939" y="-280" font-family="Times,serif" font-size="14.00">id :integer</text>
<text text-anchor="start" x="492.939" y="-263.2" font-family="Times,serif" font-size="14.00">announcement_text :string</text>
<text text-anchor="start" x="492.939" y="-246.4" font-family="Times,serif" font-size="14.00">announcement_image :string</text>
<text text-anchor="start" x="492.939" y="-229.6" font-family="Times,serif" font-size="14.00">user_id :integer</text>
<text text-anchor="start" x="492.939" y="-212.8" font-family="Times,serif" font-size="14.00">created_at :datetime</text>
<text text-anchor="start" x="492.939" y="-196" font-family="Times,serif" font-size="14.00">updated_at :datetime</text>
</g>
<!-- Classroom -->
<g id="node3" class="node"><title>Classroom</title>
<path fill="none" stroke="black" d="M225.226,-836.8C225.226,-836.8 356.774,-836.8 356.774,-836.8 362.774,-836.8 368.774,-842.8 368.774,-848.8 368.774,-848.8 368.774,-975.2 368.774,-975.2 368.774,-981.2 362.774,-987.2 356.774,-987.2 356.774,-987.2 225.226,-987.2 225.226,-987.2 219.226,-987.2 213.226,-981.2 213.226,-975.2 213.226,-975.2 213.226,-848.8 213.226,-848.8 213.226,-842.8 219.226,-836.8 225.226,-836.8"/>
<text text-anchor="middle" x="291" y="-969.2" font-family="Times,serif" font-size="14.00">Classroom</text>
<polyline fill="none" stroke="black" points="213.226,-962.4 368.774,-962.4 "/>
<text text-anchor="start" x="221.226" y="-944.4" font-family="Times,serif" font-size="14.00">id :integer</text>
<text text-anchor="start" x="221.226" y="-927.6" font-family="Times,serif" font-size="14.00">name :string</text>
<text text-anchor="start" x="221.226" y="-910.8" font-family="Times,serif" font-size="14.00">seating_capacity :integer</text>
<text text-anchor="start" x="221.226" y="-894" font-family="Times,serif" font-size="14.00">classroom_image :string</text>
<text text-anchor="start" x="221.226" y="-877.2" font-family="Times,serif" font-size="14.00">site_id :integer</text>
<text text-anchor="start" x="221.226" y="-860.4" font-family="Times,serif" font-size="14.00">created_at :datetime</text>
<text text-anchor="start" x="221.226" y="-843.6" font-family="Times,serif" font-size="14.00">updated_at :datetime</text>
</g>
<!-- Lesson -->
<g id="node8" class="node"><title>Lesson</title>
<path fill="none" stroke="black" d="M243.543,-410.8C243.543,-410.8 356.457,-410.8 356.457,-410.8 362.457,-410.8 368.457,-416.8 368.457,-422.8 368.457,-422.8 368.457,-549.2 368.457,-549.2 368.457,-555.2 362.457,-561.2 356.457,-561.2 356.457,-561.2 243.543,-561.2 243.543,-561.2 237.543,-561.2 231.543,-555.2 231.543,-549.2 231.543,-549.2 231.543,-422.8 231.543,-422.8 231.543,-416.8 237.543,-410.8 243.543,-410.8"/>
<text text-anchor="middle" x="300" y="-543.2" font-family="Times,serif" font-size="14.00">Lesson</text>
<polyline fill="none" stroke="black" points="231.543,-536.4 368.457,-536.4 "/>
<text text-anchor="start" x="239.543" y="-518.4" font-family="Times,serif" font-size="14.00">id :integer</text>
<text text-anchor="start" x="239.543" y="-501.6" font-family="Times,serif" font-size="14.00">lesson_date :date</text>
<text text-anchor="start" x="239.543" y="-484.8" font-family="Times,serif" font-size="14.00">time_slot :string</text>
<text text-anchor="start" x="239.543" y="-468" font-family="Times,serif" font-size="14.00">course_id :integer</text>
<text text-anchor="start" x="239.543" y="-451.2" font-family="Times,serif" font-size="14.00">classroom_id :integer</text>
<text text-anchor="start" x="239.543" y="-434.4" font-family="Times,serif" font-size="14.00">created_at :datetime</text>
<text text-anchor="start" x="239.543" y="-417.6" font-family="Times,serif" font-size="14.00">updated_at :datetime</text>
</g>
<!-- Classroom&#45;&gt;Lesson -->
<g id="edge1" class="edge"><title>Classroom&#45;&gt;Lesson</title>
<path fill="none" stroke="#c2082e" d="M292.755,-828.337C294.326,-754.291 296.621,-646.174 298.205,-571.555"/>
<ellipse fill="none" stroke="#c2082e" cx="292.663" cy="-832.661" rx="4" ry="4"/>
<polygon fill="#c2082e" stroke="#c2082e" points="298.212,-571.253 302.923,-561.351 298.318,-566.254 298.424,-561.255 298.424,-561.255 298.424,-561.255 298.318,-566.254 293.925,-561.159 298.212,-571.253 298.212,-571.253"/>
</g>
<!-- Course -->
<g id="node4" class="node"><title>Course</title>
<path fill="none" stroke="black" d="M331.06,-632.4C331.06,-632.4 478.94,-632.4 478.94,-632.4 484.94,-632.4 490.94,-638.4 490.94,-644.4 490.94,-644.4 490.94,-787.6 490.94,-787.6 490.94,-793.6 484.94,-799.6 478.94,-799.6 478.94,-799.6 331.06,-799.6 331.06,-799.6 325.06,-799.6 319.06,-793.6 319.06,-787.6 319.06,-787.6 319.06,-644.4 319.06,-644.4 319.06,-638.4 325.06,-632.4 331.06,-632.4"/>
<text text-anchor="middle" x="405" y="-781.6" font-family="Times,serif" font-size="14.00">Course</text>
<polyline fill="none" stroke="black" points="319.06,-774.8 490.94,-774.8 "/>
<text text-anchor="start" x="327.06" y="-756.8" font-family="Times,serif" font-size="14.00">id :integer</text>
<text text-anchor="start" x="327.06" y="-740" font-family="Times,serif" font-size="14.00">name :string</text>
<text text-anchor="start" x="327.06" y="-723.2" font-family="Times,serif" font-size="14.00">course_image :string</text>
<text text-anchor="start" x="327.06" y="-706.4" font-family="Times,serif" font-size="14.00">advertised_fee :decimal</text>
<text text-anchor="start" x="327.06" y="-689.6" font-family="Times,serif" font-size="14.00">description :text</text>
<text text-anchor="start" x="327.06" y="-672.8" font-family="Times,serif" font-size="14.00">course_category_id :integer</text>
<text text-anchor="start" x="327.06" y="-656" font-family="Times,serif" font-size="14.00">created_at :datetime</text>
<text text-anchor="start" x="327.06" y="-639.2" font-family="Times,serif" font-size="14.00">updated_at :datetime</text>
</g>
<!-- Classroom&#45;&gt;Course -->
<g id="edge2" class="edge"><title>Classroom&#45;&gt;Course</title>
<path fill="none" stroke="#6fa09a" d="M339.949,-827.701C343.704,-821.31 347.507,-814.839 351.291,-808.4"/>
<polygon fill="#6fa09a" stroke="#6fa09a" points="339.816,-827.928 330.87,-834.269 337.283,-832.239 334.749,-836.549 334.749,-836.549 334.749,-836.549 337.283,-832.239 338.629,-838.829 339.816,-827.928 339.816,-827.928"/>
<polygon fill="#6fa09a" stroke="#6fa09a" points="351.365,-808.273 360.311,-801.931 353.898,-803.962 356.432,-799.651 356.432,-799.651 356.432,-799.651 353.898,-803.962 352.552,-797.372 351.365,-808.273 351.365,-808.273"/>
</g>
<!-- Course&#45;&gt;Lesson -->
<g id="edge3" class="edge"><title>Course&#45;&gt;Lesson</title>
<path fill="none" stroke="#691875" d="M363.538,-624.968C355.279,-607.034 346.638,-588.271 338.484,-570.566"/>
<ellipse fill="none" stroke="#691875" cx="365.271" cy="-628.731" rx="4.00002" ry="4.00002"/>
<polygon fill="#691875" stroke="#691875" points="338.452,-570.496 338.357,-559.531 336.361,-565.954 334.269,-561.413 334.269,-561.413 334.269,-561.413 336.361,-565.954 330.182,-563.295 338.452,-570.496 338.452,-570.496"/>
</g>
<!-- Enrollment -->
<g id="node7" class="node"><title>Enrollment</title>
<path fill="none" stroke="black" d="M345.495,-172.4C345.495,-172.4 454.505,-172.4 454.505,-172.4 460.505,-172.4 466.505,-178.4 466.505,-184.4 466.505,-184.4 466.505,-327.6 466.505,-327.6 466.505,-333.6 460.505,-339.6 454.505,-339.6 454.505,-339.6 345.495,-339.6 345.495,-339.6 339.495,-339.6 333.495,-333.6 333.495,-327.6 333.495,-327.6 333.495,-184.4 333.495,-184.4 333.495,-178.4 339.495,-172.4 345.495,-172.4"/>
<text text-anchor="middle" x="400" y="-321.6" font-family="Times,serif" font-size="14.00">Enrollment</text>
<polyline fill="none" stroke="black" points="333.495,-314.8 466.505,-314.8 "/>
<text text-anchor="start" x="341.495" y="-296.8" font-family="Times,serif" font-size="14.00">id :integer</text>
<text text-anchor="start" x="341.495" y="-280" font-family="Times,serif" font-size="14.00">involvement :string</text>
<text text-anchor="start" x="341.495" y="-263.2" font-family="Times,serif" font-size="14.00">fee :decimal</text>
<text text-anchor="start" x="341.495" y="-246.4" font-family="Times,serif" font-size="14.00">grade :string</text>
<text text-anchor="start" x="341.495" y="-229.6" font-family="Times,serif" font-size="14.00">user_id :integer</text>
<text text-anchor="start" x="341.495" y="-212.8" font-family="Times,serif" font-size="14.00">course_id :integer</text>
<text text-anchor="start" x="341.495" y="-196" font-family="Times,serif" font-size="14.00">created_at :datetime</text>
<text text-anchor="start" x="341.495" y="-179.2" font-family="Times,serif" font-size="14.00">updated_at :datetime</text>
</g>
<!-- Course&#45;&gt;Enrollment -->
<g id="edge4" class="edge"><title>Course&#45;&gt;Enrollment</title>
<path fill="none" stroke="#5b4095" d="M404.009,-624.182C403.141,-544.757 401.888,-429.91 401.014,-349.88"/>
<ellipse fill="none" stroke="#5b4095" cx="404.054" cy="-628.325" rx="4" ry="4"/>
<polygon fill="#5b4095" stroke="#5b4095" points="401.013,-349.807 405.404,-339.759 400.959,-344.808 400.904,-339.808 400.904,-339.808 400.904,-339.808 400.959,-344.808 396.404,-339.857 401.013,-349.807 401.013,-349.807"/>
</g>
<!-- User -->
<g id="node10" class="node"><title>User</title>
<path fill="none" stroke="black" d="M440.495,-377.2C440.495,-377.2 549.505,-377.2 549.505,-377.2 555.505,-377.2 561.505,-383.2 561.505,-389.2 561.505,-389.2 561.505,-582.8 561.505,-582.8 561.505,-588.8 555.505,-594.8 549.505,-594.8 549.505,-594.8 440.495,-594.8 440.495,-594.8 434.495,-594.8 428.495,-588.8 428.495,-582.8 428.495,-582.8 428.495,-389.2 428.495,-389.2 428.495,-383.2 434.495,-377.2 440.495,-377.2"/>
<text text-anchor="middle" x="495" y="-576.8" font-family="Times,serif" font-size="14.00">User</text>
<polyline fill="none" stroke="black" points="428.495,-570 561.505,-570 "/>
<text text-anchor="start" x="436.495" y="-552" font-family="Times,serif" font-size="14.00">id :integer</text>
<text text-anchor="start" x="436.495" y="-535.2" font-family="Times,serif" font-size="14.00">name :string</text>
<text text-anchor="start" x="436.495" y="-518.4" font-family="Times,serif" font-size="14.00">email :string</text>
<text text-anchor="start" x="436.495" y="-501.6" font-family="Times,serif" font-size="14.00">user_access :string</text>
<text text-anchor="start" x="436.495" y="-484.8" font-family="Times,serif" font-size="14.00">address :string</text>
<text text-anchor="start" x="436.495" y="-468" font-family="Times,serif" font-size="14.00">telephone :string</text>
<text text-anchor="start" x="436.495" y="-451.2" font-family="Times,serif" font-size="14.00">birth_date :date</text>
<text text-anchor="start" x="436.495" y="-434.4" font-family="Times,serif" font-size="14.00">profile :text</text>
<text text-anchor="start" x="436.495" y="-417.6" font-family="Times,serif" font-size="14.00">user_image :string</text>
<text text-anchor="start" x="436.495" y="-400.8" font-family="Times,serif" font-size="14.00">created_at :datetime</text>
<text text-anchor="start" x="436.495" y="-384" font-family="Times,serif" font-size="14.00">updated_at :datetime</text>
</g>
<!-- Course&#45;&gt;User -->
<g id="edge5" class="edge"><title>Course&#45;&gt;User</title>
<path fill="none" stroke="#8a425a" d="M441.352,-622.909C443.722,-616.903 446.126,-610.813 448.536,-604.709"/>
<polygon fill="#8a425a" stroke="#8a425a" points="441.291,-623.063 433.434,-630.712 439.455,-627.714 437.619,-632.364 437.619,-632.364 437.619,-632.364 439.455,-627.714 441.805,-634.017 441.291,-623.063 441.291,-623.063"/>
<polygon fill="#8a425a" stroke="#8a425a" points="448.651,-604.417 456.509,-596.767 450.487,-599.766 452.323,-595.115 452.323,-595.115 452.323,-595.115 450.487,-599.766 448.137,-593.463 448.651,-604.417 448.651,-604.417"/>
</g>
<!-- CourseCategory -->
<g id="node5" class="node"><title>CourseCategory</title>
<path fill="none" stroke="black" d="M398.495,-862C398.495,-862 507.505,-862 507.505,-862 513.505,-862 519.505,-868 519.505,-874 519.505,-874 519.505,-950 519.505,-950 519.505,-956 513.505,-962 507.505,-962 507.505,-962 398.495,-962 398.495,-962 392.495,-962 386.495,-956 386.495,-950 386.495,-950 386.495,-874 386.495,-874 386.495,-868 392.495,-862 398.495,-862"/>
<text text-anchor="middle" x="453" y="-944" font-family="Times,serif" font-size="14.00">CourseCategory</text>
<polyline fill="none" stroke="black" points="386.495,-937.2 519.505,-937.2 "/>
<text text-anchor="start" x="394.495" y="-919.2" font-family="Times,serif" font-size="14.00">id :integer</text>
<text text-anchor="start" x="394.495" y="-902.4" font-family="Times,serif" font-size="14.00">name :string</text>
<text text-anchor="start" x="394.495" y="-885.6" font-family="Times,serif" font-size="14.00">created_at :datetime</text>
<text text-anchor="start" x="394.495" y="-868.8" font-family="Times,serif" font-size="14.00">updated_at :datetime</text>
</g>
<!-- CourseCategory&#45;&gt;Course -->
<g id="edge6" class="edge"><title>CourseCategory&#45;&gt;Course</title>
<path fill="none" stroke="#742639" d="M438.813,-853.66C435.38,-839.786 431.624,-824.604 427.903,-809.565"/>
<ellipse fill="none" stroke="#742639" cx="439.865" cy="-857.912" rx="4.00001" ry="4.00001"/>
<polygon fill="#742639" stroke="#742639" points="427.868,-809.425 429.834,-798.637 426.667,-804.571 425.466,-799.717 425.466,-799.717 425.466,-799.717 426.667,-804.571 421.098,-800.798 427.868,-809.425 427.868,-809.425"/>
</g>
<!-- EnrolledUserComment -->
<g id="node6" class="node"><title>EnrolledUserComment</title>
<path fill="none" stroke="black" d="M337.708,-1.2C337.708,-1.2 462.292,-1.2 462.292,-1.2 468.292,-1.2 474.292,-7.2 474.292,-13.2 474.292,-13.2 474.292,-122.8 474.292,-122.8 474.292,-128.8 468.292,-134.8 462.292,-134.8 462.292,-134.8 337.708,-134.8 337.708,-134.8 331.708,-134.8 325.708,-128.8 325.708,-122.8 325.708,-122.8 325.708,-13.2 325.708,-13.2 325.708,-7.2 331.708,-1.2 337.708,-1.2"/>
<text text-anchor="middle" x="400" y="-116.8" font-family="Times,serif" font-size="14.00">EnrolledUserComment</text>
<polyline fill="none" stroke="black" points="325.708,-110 474.292,-110 "/>
<text text-anchor="start" x="333.708" y="-92" font-family="Times,serif" font-size="14.00">id :integer</text>
<text text-anchor="start" x="333.708" y="-75.2" font-family="Times,serif" font-size="14.00">comment_text :string</text>
<text text-anchor="start" x="333.708" y="-58.4" font-family="Times,serif" font-size="14.00">comment_image :string</text>
<text text-anchor="start" x="333.708" y="-41.6" font-family="Times,serif" font-size="14.00">enrollment_id :integer</text>
<text text-anchor="start" x="333.708" y="-24.8" font-family="Times,serif" font-size="14.00">created_at :datetime</text>
<text text-anchor="start" x="333.708" y="-8" font-family="Times,serif" font-size="14.00">updated_at :datetime</text>
</g>
<!-- Enrollment&#45;&gt;EnrolledUserComment -->
<g id="edge7" class="edge"><title>Enrollment&#45;&gt;EnrolledUserComment</title>
<path fill="none" stroke="#e0bf76" d="M400,-164.094C400,-157.797 400,-151.487 400,-145.279"/>
<ellipse fill="none" stroke="#e0bf76" cx="400" cy="-168.335" rx="4" ry="4"/>
<polygon fill="#e0bf76" stroke="#e0bf76" points="400,-144.95 404.5,-134.95 400,-139.95 400,-134.95 400,-134.95 400,-134.95 400,-139.95 395.5,-134.95 400,-144.95 400,-144.95"/>
</g>
<!-- Site -->
<g id="node9" class="node"><title>Site</title>
<path fill="none" stroke="black" d="M236.495,-1024.4C236.495,-1024.4 345.505,-1024.4 345.505,-1024.4 351.505,-1024.4 357.505,-1030.4 357.505,-1036.4 357.505,-1036.4 357.505,-1179.6 357.505,-1179.6 357.505,-1185.6 351.505,-1191.6 345.505,-1191.6 345.505,-1191.6 236.495,-1191.6 236.495,-1191.6 230.495,-1191.6 224.495,-1185.6 224.495,-1179.6 224.495,-1179.6 224.495,-1036.4 224.495,-1036.4 224.495,-1030.4 230.495,-1024.4 236.495,-1024.4"/>
<text text-anchor="middle" x="291" y="-1173.6" font-family="Times,serif" font-size="14.00">Site</text>
<polyline fill="none" stroke="black" points="224.495,-1166.8 357.505,-1166.8 "/>
<text text-anchor="start" x="232.495" y="-1148.8" font-family="Times,serif" font-size="14.00">id :integer</text>
<text text-anchor="start" x="232.495" y="-1132" font-family="Times,serif" font-size="14.00">name :string</text>
<text text-anchor="start" x="232.495" y="-1115.2" font-family="Times,serif" font-size="14.00">address :string</text>
<text text-anchor="start" x="232.495" y="-1098.4" font-family="Times,serif" font-size="14.00">telephone :string</text>
<text text-anchor="start" x="232.495" y="-1081.6" font-family="Times,serif" font-size="14.00">site_image :string</text>
<text text-anchor="start" x="232.495" y="-1064.8" font-family="Times,serif" font-size="14.00">directions :text</text>
<text text-anchor="start" x="232.495" y="-1048" font-family="Times,serif" font-size="14.00">created_at :datetime</text>
<text text-anchor="start" x="232.495" y="-1031.2" font-family="Times,serif" font-size="14.00">updated_at :datetime</text>
</g>
<!-- Site&#45;&gt;Classroom -->
<g id="edge8" class="edge"><title>Site&#45;&gt;Classroom</title>
<path fill="none" stroke="#07a8f4" d="M291,-1016.09C291,-1009.9 291,-1003.69 291,-997.542"/>
<ellipse fill="none" stroke="#07a8f4" cx="291" cy="-1020.16" rx="4" ry="4"/>
<polygon fill="#07a8f4" stroke="#07a8f4" points="291,-997.278 295.5,-987.278 291,-992.278 291,-987.278 291,-987.278 291,-987.278 291,-992.278 286.5,-987.279 291,-997.278 291,-997.278"/>
</g>
<!-- User&#45;&gt;Enrollment -->
<g id="edge9" class="edge"><title>User&#45;&gt;Enrollment</title>
<path fill="none" stroke="#521f8d" d="M446.815,-369.357C444.014,-362.632 441.215,-355.915 438.458,-349.299"/>
<ellipse fill="none" stroke="#521f8d" cx="448.465" cy="-373.317" rx="4.00001" ry="4.00001"/>
<polygon fill="#521f8d" stroke="#521f8d" points="438.3,-348.921 438.608,-337.959 436.377,-344.305 434.454,-339.69 434.454,-339.69 434.454,-339.69 436.377,-344.305 430.3,-341.421 438.3,-348.921 438.3,-348.921"/>
</g>
<!-- User&#45;&gt;Announcement -->
<g id="edge10" class="edge"><title>User&#45;&gt;Announcement</title>
<path fill="none" stroke="#d61240" d="M535.112,-369.233C539.401,-356.855 543.681,-344.504 547.748,-332.766"/>
<ellipse fill="none" stroke="#d61240" cx="533.727" cy="-373.23" rx="4.00001" ry="4.00001"/>
<polygon fill="#d61240" stroke="#d61240" points="547.836,-332.511 555.362,-324.535 549.473,-327.786 551.11,-323.062 551.11,-323.062 551.11,-323.062 549.473,-327.786 546.858,-321.589 547.836,-332.511 547.836,-332.511"/>
</g>
</g>
</svg>
