<?xml version="1.0" encoding="UTF-8" standalone="no"?>
<!DOCTYPE svg PUBLIC "-//W3C//DTD SVG 1.1//EN"
 "http://www.w3.org/Graphics/SVG/1.1/DTD/svg11.dtd">
<!-- Generated by graphviz version 2.30.1 (20130711.0846)
 -->
<!-- Title: models_diagram Pages: 1 -->
<svg width="539pt" height="454pt"
 viewBox="0.00 0.00 539.00 454.00" xmlns="http://www.w3.org/2000/svg" xmlns:xlink="http://www.w3.org/1999/xlink">
<g id="graph0" class="graph" transform="scale(1 1) rotate(0) translate(4 450)">
<title>models_diagram</title>
<polygon fill="white" stroke="white" points="-4,5 -4,-450 536,-450 536,5 -4,5"/>
<!-- _diagram_info -->
<g id="node1" class="node"><title>_diagram_info</title>
<text text-anchor="start" x="7.31226" y="-429" font-family="Times,serif" font-size="13.00">Models diagram</text>
<text text-anchor="start" x="7.31226" y="-413.4" font-family="Times,serif" font-size="13.00">Date: Jul 13 2013 &#45; 13:59</text>
<text text-anchor="start" x="7.31226" y="-397.8" font-family="Times,serif" font-size="13.00">Migration version: 20130713123851</text>
<text text-anchor="start" x="7.31226" y="-382.2" font-family="Times,serif" font-size="13.00">Generated by RailRoady 1.1.0</text>
<text text-anchor="start" x="7.31226" y="-366.6" font-family="Times,serif" font-size="13.00">http://railroady.prestonlee.com</text>
</g>
<!-- Announcement -->
<g id="node2" class="node"><title>Announcement</title>
<ellipse fill="none" stroke="black" cx="461" cy="-90" rx="70.0516" ry="18"/>
<text text-anchor="middle" x="461" y="-84.4" font-family="Times,serif" font-size="14.00">Announcement</text>
</g>
<!-- Classroom -->
<g id="node3" class="node"><title>Classroom</title>
<ellipse fill="none" stroke="black" cx="252" cy="-306" rx="52.0219" ry="18"/>
<text text-anchor="middle" x="252" y="-300.4" font-family="Times,serif" font-size="14.00">Classroom</text>
</g>
<!-- Lesson -->
<g id="node8" class="node"><title>Lesson</title>
<ellipse fill="none" stroke="black" cx="252" cy="-162" rx="38.0929" ry="18"/>
<text text-anchor="middle" x="252" y="-156.4" font-family="Times,serif" font-size="14.00">Lesson</text>
</g>
<!-- Classroom&#45;&gt;Lesson -->
<g id="edge1" class="edge"><title>Classroom&#45;&gt;Lesson</title>
<path fill="none" stroke="#4ac294" d="M252,-279.558C252,-254.444 252,-216.164 252,-190.393"/>
<ellipse fill="none" stroke="#4ac294" cx="252" cy="-283.871" rx="4" ry="4"/>
<polygon fill="#4ac294" stroke="#4ac294" points="252,-190.189 256.5,-180.189 252,-185.189 252,-180.189 252,-180.189 252,-180.189 252,-185.189 247.5,-180.189 252,-190.189 252,-190.189"/>
</g>
<!-- Course -->
<g id="node4" class="node"><title>Course</title>
<ellipse fill="none" stroke="black" cx="318" cy="-234" rx="38.0929" ry="18"/>
<text text-anchor="middle" x="318" y="-228.4" font-family="Times,serif" font-size="14.00">Course</text>
</g>
<!-- Classroom&#45;&gt;Course -->
<g id="edge2" class="edge"><title>Classroom&#45;&gt;Course</title>
<path fill="none" stroke="#e88251" d="M274.282,-281.368C281.29,-273.935 289.021,-265.735 296.009,-258.324"/>
<polygon fill="#e88251" stroke="#e88251" points="274.168,-281.489 264.033,-285.678 270.738,-285.127 267.308,-288.765 267.308,-288.765 267.308,-288.765 270.738,-285.127 270.582,-291.852 274.168,-281.489 274.168,-281.489"/>
<polygon fill="#e88251" stroke="#e88251" points="296.369,-257.942 306.504,-253.753 299.799,-254.304 303.229,-250.666 303.229,-250.666 303.229,-250.666 299.799,-254.304 299.955,-247.579 296.369,-257.942 296.369,-257.942"/>
</g>
<!-- Course&#45;&gt;Lesson -->
<g id="edge3" class="edge"><title>Course&#45;&gt;Lesson</title>
<path fill="none" stroke="#c2f6f8" d="M297.44,-211.194C290.029,-203.334 281.638,-194.434 274.101,-186.441"/>
<ellipse fill="none" stroke="#c2f6f8" cx="300.28" cy="-214.206" rx="4.00002" ry="4.00002"/>
<polygon fill="#c2f6f8" stroke="#c2f6f8" points="273.777,-186.097 270.191,-175.734 270.347,-182.459 266.917,-178.821 266.917,-178.821 266.917,-178.821 270.347,-182.459 263.643,-181.908 273.777,-186.097 273.777,-186.097"/>
</g>
<!-- Enrollment -->
<g id="node7" class="node"><title>Enrollment</title>
<ellipse fill="none" stroke="black" cx="318" cy="-90" rx="54.2251" ry="18"/>
<text text-anchor="middle" x="318" y="-84.4" font-family="Times,serif" font-size="14.00">Enrollment</text>
</g>
<!-- Course&#45;&gt;Enrollment -->
<g id="edge4" class="edge"><title>Course&#45;&gt;Enrollment</title>
<path fill="none" stroke="#8cacee" d="M318,-207.558C318,-182.444 318,-144.164 318,-118.393"/>
<ellipse fill="none" stroke="#8cacee" cx="318" cy="-211.871" rx="4" ry="4"/>
<polygon fill="#8cacee" stroke="#8cacee" points="318,-118.189 322.5,-108.189 318,-113.189 318,-108.189 318,-108.189 318,-108.189 318,-113.189 313.5,-108.189 318,-118.189 318,-118.189"/>
</g>
<!-- User -->
<g id="node10" class="node"><title>User</title>
<ellipse fill="none" stroke="black" cx="375" cy="-162" rx="28.9087" ry="18"/>
<text text-anchor="middle" x="375" y="-156.4" font-family="Times,serif" font-size="14.00">User</text>
</g>
<!-- Course&#45;&gt;User -->
<g id="edge5" class="edge"><title>Course&#45;&gt;User</title>
<path fill="none" stroke="#dfcefc" d="M337.73,-208.771C343.568,-201.601 349.951,-193.762 355.758,-186.631"/>
<polygon fill="#dfcefc" stroke="#dfcefc" points="337.535,-209.01 327.731,-213.923 334.377,-212.887 331.22,-216.765 331.22,-216.765 331.22,-216.765 334.377,-212.887 334.71,-219.606 337.535,-209.01 337.535,-209.01"/>
<polygon fill="#dfcefc" stroke="#dfcefc" points="355.929,-186.42 365.733,-181.507 359.086,-182.543 362.244,-178.666 362.244,-178.666 362.244,-178.666 359.086,-182.543 358.754,-175.824 355.929,-186.42 355.929,-186.42"/>
</g>
<!-- CourseCategory -->
<g id="node5" class="node"><title>CourseCategory</title>
<ellipse fill="none" stroke="black" cx="396" cy="-306" rx="73.1904" ry="18"/>
<text text-anchor="middle" x="396" y="-300.4" font-family="Times,serif" font-size="14.00">CourseCategory</text>
</g>
<!-- CourseCategory&#45;&gt;Course -->
<g id="edge6" class="edge"><title>CourseCategory&#45;&gt;Course</title>
<path fill="none" stroke="#1bc71d" d="M371.53,-283.04C362.353,-274.804 351.925,-265.445 342.725,-257.189"/>
<ellipse fill="none" stroke="#1bc71d" cx="374.538" cy="-285.739" rx="4.00002" ry="4.00002"/>
<polygon fill="#1bc71d" stroke="#1bc71d" points="342.462,-256.953 338.025,-246.925 338.741,-253.614 335.02,-250.274 335.02,-250.274 335.02,-250.274 338.741,-253.614 332.014,-253.623 342.462,-256.953 342.462,-256.953"/>
</g>
<!-- EnrolledUserComment -->
<g id="node6" class="node"><title>EnrolledUserComment</title>
<ellipse fill="none" stroke="black" cx="318" cy="-18" rx="100.42" ry="18"/>
<text text-anchor="middle" x="318" y="-12.4" font-family="Times,serif" font-size="14.00">EnrolledUserComment</text>
</g>
<!-- Enrollment&#45;&gt;EnrolledUserComment -->
<g id="edge7" class="edge"><title>Enrollment&#45;&gt;EnrolledUserComment</title>
<path fill="none" stroke="#1f9060" d="M318,-63.6398C318,-58.0629 318,-52.1319 318,-46.4761"/>
<ellipse fill="none" stroke="#1f9060" cx="318" cy="-67.6966" rx="4" ry="4"/>
<polygon fill="#1f9060" stroke="#1f9060" points="318,-46.1043 322.5,-36.1043 318,-41.1043 318,-36.1043 318,-36.1043 318,-36.1043 318,-41.1043 313.5,-36.1044 318,-46.1043 318,-46.1043"/>
</g>
<!-- Site -->
<g id="node9" class="node"><title>Site</title>
<ellipse fill="none" stroke="black" cx="252" cy="-403" rx="27" ry="18"/>
<text text-anchor="middle" x="252" y="-397.4" font-family="Times,serif" font-size="14.00">Site</text>
</g>
<!-- Site&#45;&gt;Classroom -->
<g id="edge8" class="edge"><title>Site&#45;&gt;Classroom</title>
<path fill="none" stroke="#a381d6" d="M252,-376.414C252,-363.518 252,-347.862 252,-334.685"/>
<ellipse fill="none" stroke="#a381d6" cx="252" cy="-380.576" rx="4" ry="4"/>
<polygon fill="#a381d6" stroke="#a381d6" points="252,-334.314 256.5,-324.314 252,-329.314 252,-324.314 252,-324.314 252,-324.314 252,-329.314 247.5,-324.314 252,-334.314 252,-334.314"/>
</g>
<!-- User&#45;&gt;Enrollment -->
<g id="edge9" class="edge"><title>User&#45;&gt;Enrollment</title>
<path fill="none" stroke="#5037ad" d="M357.124,-139.047C351.017,-131.547 344.15,-123.114 337.893,-115.43"/>
<ellipse fill="none" stroke="#5037ad" cx="359.824" cy="-142.363" rx="4.00002" ry="4.00002"/>
<polygon fill="#5037ad" stroke="#5037ad" points="337.723,-115.222 334.898,-104.626 334.566,-111.344 331.409,-107.467 331.409,-107.467 331.409,-107.467 334.566,-111.344 327.92,-110.309 337.723,-115.222 337.723,-115.222"/>
</g>
<!-- User&#45;&gt;Announcement -->
<g id="edge10" class="edge"><title>User&#45;&gt;Announcement</title>
<path fill="none" stroke="#18dd58" d="M398.262,-142.066C409.02,-133.309 421.883,-122.839 433.154,-113.665"/>
<ellipse fill="none" stroke="#18dd58" cx="395.093" cy="-144.645" rx="4.00002" ry="4.00002"/>
<polygon fill="#18dd58" stroke="#18dd58" points="433.271,-113.57 443.867,-110.747 437.149,-110.414 441.027,-107.257 441.027,-107.257 441.027,-107.257 437.149,-110.414 438.186,-103.767 433.271,-113.57 433.271,-113.57"/>
</g>
</g>
</svg>
